<mxfile host="app.diagrams.net" modified="2023-08-07T06:18:39.927Z" agent="Mozilla/5.0 (Windows NT 10.0; Win64; x64) AppleWebKit/537.36 (KHTML, like Gecko) Chrome/114.0.0.0 Safari/537.36" version="21.6.6" etag="jcpp12T702xKFIZ4V0mX" type="github">
  <diagram name="Страница 1" id="B0rO_PYOZwaoQ4efeKbx">
    <mxGraphModel>
      <root>
        <mxCell id="0" />
        <mxCell id="1" parent="0" />
      </root>
    </mxGraphModel>
  </diagram>
</mxfile>
